<svg xmlns="http://www.w3.org/2000/svg" fill-rule="evenodd" stroke-linejoin="round" stroke-miterlimit="2" clip-rule="evenodd" viewBox="0 0 48 48" id="city-hospital"><path fill="url(#a)" d="M24 2C11.858 2 2 11.858 2 24s9.858 22 22 22 22-9.858 22-22S36.142 2 24 2Zm-7.938 14H14a1 1 0 0 0-1 1v20h-2a1 1 0 0 0 0 2h26a1 1 0 0 0 0-2h-2V17a1 1 0 0 0-1-1h-2.062c-.493-3.944-3.861-7-7.938-7s-7.445 3.056-7.938 7ZM15 37h4v-6a1 1 0 0 1 1-1h8a1 1 0 0 1 1 1v6h4V18h-1.062c-.493 3.944-3.861 7-7.938 7s-7.445-3.056-7.938-7H15v19Zm6-5v5h2v-5h-2Zm4 0v5h2v-5h-2Zm-1-21c3.311 0 6 2.689 6 6s-2.689 6-6 6-6-2.689-6-6 2.689-6 6-6Zm-1 5h-2a1 1 0 0 0 0 2h2v2a1 1 0 0 0 2 0v-2h2a1 1 0 0 0 0-2h-2v-2a1 1 0 0 0-2 0v2Z"></path><defs><linearGradient id="a" x1="0" x2="1" y1="0" y2="0" gradientTransform="matrix(44 0 0 44 2 24)" gradientUnits="userSpaceOnUse"><stop offset="0" stop-color="#f78cff"></stop><stop offset="1" stop-color="#6dc8ff"></stop></linearGradient></defs></svg>