<svg xmlns="http://www.w3.org/2000/svg" viewBox="0 0 1200 900" id="consultancy"><g data-name="Report checking"><g><g><path fill="#eff5f9" d="M771.62,63.41c29.62,8.61,162,50.9,218.45,164.85,79.25,159.88-54.91,331.51-91.71,378.59C814,714.79,588.39,916,363.81,834.87c-179.87-65-253.69-285-219.08-440.82C201.75,137.2,536.61-4.92,771.62,63.41Z"></path></g></g><g><rect width="64.89" height="28.93" x="892.27" y="332.32" fill="none" stroke="#c9effb" stroke-miterlimit="10" stroke-width="2" rx="2"></rect><rect width="64.89" height="28.93" x="892.27" y="390.07" fill="none" stroke="#c9effb" stroke-miterlimit="10" stroke-width="2" rx="2"></rect><rect width="64.89" height="28.93" x="924.71" y="361.25" fill="none" stroke="#c9effb" stroke-miterlimit="10" stroke-width="2" rx="2"></rect><rect width="64.89" height="28.93" x="859.83" y="361.25" fill="none" stroke="#c9effb" stroke-miterlimit="10" stroke-width="2" rx="2"></rect><rect width="64.89" height="28.93" x="180.49" y="475.31" fill="none" stroke="#c9effb" stroke-miterlimit="10" stroke-width="2" rx="2"></rect><rect width="64.89" height="28.93" x="212.93" y="533.06" fill="none" stroke="#c9effb" stroke-miterlimit="10" stroke-width="2" rx="2"></rect><rect width="64.89" height="28.93" x="226.42" y="504.24" fill="none" stroke="#c9effb" stroke-miterlimit="10" stroke-width="2" rx="2"></rect><rect width="64.89" height="28.93" x="161.53" y="504.24" fill="none" stroke="#c9effb" stroke-miterlimit="10" stroke-width="2" rx="2"></rect><rect width="64.89" height="28.93" x="557.89" y="89.87" fill="none" stroke="#c9effb" stroke-miterlimit="10" stroke-width="2" rx="2"></rect><rect width="64.89" height="28.93" x="579.81" y="147.73" fill="none" stroke="#c9effb" stroke-miterlimit="10" stroke-width="2" rx="2"></rect><rect width="64.89" height="28.93" x="603.81" y="118.8" fill="none" stroke="#c9effb" stroke-miterlimit="10" stroke-width="2" rx="2"></rect><rect width="64.89" height="28.93" x="538.93" y="118.8" fill="none" stroke="#c9effb" stroke-miterlimit="10" stroke-width="2" rx="2"></rect></g><g><path fill="#c9effb" d="M867.19,557.89h89.52a18.16,18.16,0,0,0,18-20.71L958.44,422.56a18.14,18.14,0,0,0-18-15.61h-57a18.16,18.16,0,0,0-18,15.61L849.21,537.18A18.16,18.16,0,0,0,867.19,557.89Z"></path><path fill="#80cbe8" d="M939.29,516.3c4-4.5,4.47-15.32,5.39-37a264.78,264.78,0,0,0-2.31-49.29,211.92,211.92,0,0,0-4.73-23.1h2.82a18.14,18.14,0,0,1,18,15.61l16.25,114.62a18.16,18.16,0,0,1-18,20.71H867.19a18.16,18.16,0,0,1-18-20.71l.95-6.73c3.08-1.23,6.18-2.34,9-3.36C899.29,512.74,925.6,531.65,939.29,516.3Z"></path><path fill="#c9effb" d="M950.17,628a4.28,4.28,0,0,0,4.19-5.17c-2.59-12.15-14.82-14.86-29.52-14.86H776c-14.7,0-26.93,2.71-29.52,14.86a4.28,4.28,0,0,0,4.19,5.17Z"></path><path fill="#80cbe8" d="M884.3,607.94h40.54c14.7,0,26.93,2.71,29.52,14.86a4.28,4.28,0,0,1-4.19,5.17H914.33C914.33,611.39,900.89,607.94,884.3,607.94Z"></path><path fill="#80cbe8" d="M806.85,628H894a3,3,0,0,1,3,3v8.17a0,0,0,0,1,0,0H803.85a0,0,0,0,1,0,0V631A3,3,0,0,1,806.85,628Z" transform="rotate(-180 850.44 633.555)"></path><path fill="#59a4ce" d="M845.35,639.14h10.17a3,3,0,0,1,3,3v20.49a0,0,0,0,1,0,0H842.35a0,0,0,0,1,0,0V642.14a3,3,0,0,1,3-3Z" transform="rotate(-180 850.44 650.885)"></path><path fill="#59a4ce" d="M842.35,760.79h16.17a0,0,0,0,1,0,0v20.49a3,3,0,0,1-3,3H845.35a3,3,0,0,1-3-3V760.79A0,0,0,0,1,842.35,760.79Z" transform="rotate(-180 850.44 772.53)"></path><line x1="850.44" x2="850.44" y1="662.63" y2="760.79" fill="none" stroke="#59a4ce" stroke-miterlimit="10" stroke-width="4"></line><path fill="none" stroke="#59a4ce" stroke-miterlimit="10" stroke-width="4" d="M934.92,803.14h0a18.86,18.86,0,0,0-18.87-18.86H784.83A18.85,18.85,0,0,0,766,803.14h0"></path><circle cx="934.92" cy="813.35" r="12.71" fill="#69baef"></circle><circle cx="934.92" cy="813.35" r="6.74" fill="#59a4ce"></circle><circle cx="765.97" cy="813.35" r="12.71" fill="#69baef"></circle><circle cx="765.97" cy="813.35" r="6.74" fill="#59a4ce"></circle></g><g><rect width="333.13" height="106.6" x="651.24" y="103.03" fill="#a8e5f9" rx="5.29"></rect><rect width="307.74" height="19.04" x="663.93" y="185.52" fill="#87dbf6" rx="1.7"></rect><path fill="#dae8f7" d="M664.22,213.37H964a1.72,1.72,0,0,0,1.63-1.18l4-12.38a1.71,1.71,0,0,0-1.63-2.23H668.23a1.71,1.71,0,0,0-1.63,1.17l-4,12.39A1.71,1.71,0,0,0,664.22,213.37Z"></path><path fill="#87dbf6" d="M966.92,151.16h-303a.86.86,0,0,1-.85-.86.85.85,0,0,1,.85-.85h303a.85.85,0,0,1,.85.85A.86.86,0,0,1,966.92,151.16Z"></path><rect width="30.46" height="13.96" x="927.58" y="121.11" fill="#dae8f7" rx="1.7"></rect><path fill="#a8e5f9" d="M890.76 224.17A119.23 119.23 0 00896 241.24a129.26 129.26 0 007.41 16.19 105.57 105.57 0 0021.52 28A92.14 92.14 0 00939 296.12a99.26 99.26 0 0016 7.53c1.4.49 2.82.9 4.23 1.35l2.13.66 2.16.52 4.33 1 4.39.73c2.92.59 5.89.74 8.85 1.08 1.48.2 3 .15 4.46.23l4.47.19a100.77 100.77 0 01-35.44-4.55 91.09 91.09 0 01-16.41-7.44 94.19 94.19 0 01-14.48-10.73A103.55 103.55 0 01902.23 258 117.5 117.5 0 01890.76 224.17zM717.31 224.17A117.8 117.8 0 01705.84 258a103.59 103.59 0 01-21.53 28.68 93.71 93.71 0 01-14.48 10.73 91 91 0 01-16.4 7.44A100.83 100.83 0 01618 309.44l4.47-.19c1.48-.08 3 0 4.45-.23 3-.34 5.94-.49 8.85-1.08l4.4-.73 4.33-1 2.16-.52 2.12-.66c1.41-.45 2.83-.86 4.23-1.35a99.76 99.76 0 0016-7.53 92.06 92.06 0 0014.12-10.66c8.8-7.92 15.84-17.64 21.52-28a129.32 129.32 0 007.42-16.19A121.83 121.83 0 00717.31 224.17zM827.23 232.53a121.68 121.68 0 0111 37.41 184.13 184.13 0 011.63 19.52 85 85 0 01-.43 9.83 65.21 65.21 0 01-1.85 9.69c-3.5 12.81-12.19 23.76-22.93 31.32s-24 11.93-37.28 11.17a61.65 61.65 0 01-19.24-4.35 59 59 0 01-8.88-4.38 45 45 0 01-7.82-6.13 37.89 37.89 0 01-6.11-7.85c-.78-1.47-1.48-3-2.17-4.49l-.84-2.35-.69-2.39a44.53 44.53 0 01-.6-19.69 28 28 0 013.65-9.25 18.34 18.34 0 017.37-6.68 22.4 22.4 0 0119.32.51 20.39 20.39 0 017.35 6.57 17 17 0 013.1 9.28 16.1 16.1 0 01-2.8 9.3 20.42 20.42 0 01-7.27 6.43 20.25 20.25 0 007.09-6.55 15.66 15.66 0 002.56-9.17 16.41 16.41 0 00-3.19-8.93 19.56 19.56 0 00-7.22-6.18 21.47 21.47 0 00-18.47-.29 17.18 17.18 0 00-6.83 6.35 26.59 26.59 0 00-3.37 8.87 39.24 39.24 0 00-.66 9.56 46.07 46.07 0 001.4 9.5 34.24 34.24 0 009.47 16.34 42.34 42.34 0 007.56 5.88 56.59 56.59 0 008.64 4.22 60.13 60.13 0 0018.74 4.17c12.85.79 25.73-3.48 36.3-10.74s19-18 22.57-30.41a64.59 64.59 0 001.92-9.47 84.5 84.5 0 00.54-9.68A189.56 189.56 0 00837.44 270 121.41 121.41 0 00827.23 232.53z"></path></g><g><path fill="#87dbf6" d="M208.8,108.05V401.12H459.86V108.05Zm116.46,273H223.12V125.23H325.26Zm120.29,0H343.4V125.23H445.55Z"></path><path fill="#a8e5f9" d="M245.14 125.23s-14.4 163.54 13 200.52 67.16 27.78 67.16 27.78v27.54H223.12V125.23zM365.43 125.23s-14.4 163.54 13 200.52 67.15 27.78 67.15 27.78v27.54H343.4V125.23z"></path><rect width="278.64" height="3" x="195.01" y="106.55" fill="#ff0068"></rect><rect width="278.64" height="3" x="195.01" y="117.27" fill="#ff0068"></rect><rect width="278.64" height="3" x="195.01" y="127.98" fill="#ff0068"></rect><rect width="278.64" height="3" x="195.01" y="138.7" fill="#ff0068"></rect><rect width="278.64" height="3" x="195.01" y="149.42" fill="#ff0068"></rect><rect width="278.64" height="3" x="195.01" y="160.14" fill="#ff0068"></rect><rect width="278.64" height="3" x="195.01" y="170.85" fill="#ff0068"></rect><rect width="278.64" height="3" x="195.01" y="181.57" fill="#ff0068"></rect><rect width="278.64" height="3" x="195.01" y="192.29" fill="#ff0068"></rect><rect width="278.64" height="3" x="195.01" y="203.01" fill="#ff0068"></rect><rect width="278.64" height="3" x="195.01" y="213.58" fill="#ff0068"></rect><rect width="278.64" height="3" x="195.01" y="224.29" fill="#ff0068"></rect><rect width="278.64" height="3" x="195.01" y="235.01" fill="#ff0068"></rect><rect width="278.64" height="3" x="195.01" y="245.73" fill="#ff0068"></rect><rect width="278.64" height="3" x="195.01" y="256.45" fill="#ff0068"></rect><rect width="278.64" height="3" x="195.01" y="267.16" fill="#ff0068"></rect><rect width="278.64" height="3" x="195.01" y="277.88" fill="#ff0068"></rect><rect width="278.64" height="3" x="195.01" y="288.6" fill="#ff0068"></rect><rect width="278.64" height="3" x="195.01" y="299.32" fill="#ff0068"></rect><rect width="278.64" height="3" x="195.01" y="310.03" fill="#ff0068"></rect></g><g><rect width="7" height="57.42" x="101.43" y="604.36" fill="#2f170b"></rect><rect width="50.15" height="164.27" x="79.85" y="661.79" fill="#e3eaf3"></rect><rect width="17.44" height="164.27" x="79.85" y="661.79" fill="#b6b7b7"></rect><polygon fill="#feaa40" points="154.84 604.36 55.02 604.36 76.22 484.43 133.64 484.43 154.84 604.36"></polygon><path fill="#ea8826" d="M92.57,545.49c-7-18.44-6.16-36.21-5.81-42.16a110.28,110.28,0,0,1,2.82-18.9H76.22L55,604.36h99.82l-.6-3.41c-7.08-3-15.79-4.55-28.23-13.3C120.26,583.6,101.79,569.62,92.57,545.49Z"></path></g><g><path fill="#7bce34" d="M997.2,762.77l-1-.8c1-7.41,4.15-30,8.19-58.31,9.85-69.08,25.12-171.86,28.23-168.86,4.27,4.1,4.36,56.07-.55,117.09-.48,6-1,12-1.58,18.08q-.9,9.53-1.67,18.22c-2.26,5.48-4.67,11.11-7.2,16.78C1004.8,742.7,997.2,762.77,997.2,762.77Z"></path><path fill="#3c8f2d" d="M1003.39,752.83s4.34-21,15-60.91,16.38-77.08,13.36-80.6c-1.42-1.66-11.81,27.08-22.45,58.06-4.76,32.64-9,63.07-11.44,80.37Z"></path><path fill="#3c8f2d" d="M1005.14,810.38l1.23-.34c1.91-7.24,7.73-29.33,14.89-57,17.48-67.55,43-168.29,38.92-166.72-5.52,2.14-25.6,50.08-44.55,108.29q-2.77,8.52-5.5,17.29-2.83,9.15-5.47,17.46c0,5.93,0,12,.19,18.26C1005.86,788.93,1005.14,810.38,1005.14,810.38Z"></path><path fill="#3c8f2d" d="M899.46,644.59a45.66,45.66,0,0,1,5.14-2.47c1.75-.73,3.53-1.37,5.34-1.94a73.25,73.25,0,0,1,11.16-2.59,70.84,70.84,0,0,1,23.5.23,59,59,0,0,1,11.74,3.4,57.58,57.58,0,0,1,5.6,2.7l1.36.76c.45.27.88.56,1.33.84.87.57,1.77,1.1,2.61,1.72a63.82,63.82,0,0,1,9.38,8.29l2.07,2.34c.17.19.35.39.5.58l.45.57.89,1.14,3.59,4.54c2.19,3.16,4.52,6.25,6.43,9.59l1.48,2.47c.25.42.5.82.73,1.24l.68,1.27,2.68,5.09c1.64,3.46,3.3,6.91,4.71,10.46l1.11,2.64,1,2.67,1,2.67.5,1.34.46,1.35c.6,1.81,1.3,3.58,2,5.37s1.32,3.59,2,5.38,1.21,3.63,1.73,5.47.88,3.73,1.22,5.61c.14.95.26,1.9.37,2.85s.21,1.9.29,2.86c.11,1.92.22,3.83.18,5.76a53.73,53.73,0,0,1-.35,5.8,39,39,0,0,1-1,5.8l-11.87.43c-1.3-3.37-2.26-6.69-3.19-10l-.68-2.48c-.21-.84-.45-1.66-.64-2.49q-.68-2.48-1.23-5c-.42-1.65-.76-3.31-1-5s-.61-3.36-.89-5-.65-3.36-1-5-.89-3.3-1.4-4.94l-.4-1.22-.44-1.2-.9-2.4c-.3-.8-.6-1.6-.92-2.39l-1-2.34c-1.32-3.15-2.93-6.16-4.46-9.19l-2.53-4.42-.63-1.1c-.22-.37-.45-.72-.68-1.07l-1.37-2.14-1.35-2.15c-.43-.73-1-1.38-1.44-2.08L970.26,675l-3.13-4-.78-1-.4-.49c-.13-.17-.26-.29-.39-.44L964,667.4c-.51-.57-1.09-1.06-1.63-1.6l-.83-.8c-.28-.25-.58-.49-.87-.73-.59-.48-1.15-1-1.75-1.47l-1.83-1.36c-.6-.47-1.26-.86-1.89-1.3-.31-.21-.62-.43-1-.64l-1-.58c-1.28-.84-2.65-1.55-4-2.31a78.83,78.83,0,0,0-8.65-3.87,93.74,93.74,0,0,0-19.43-4.94c-3.42-.53-6.91-.92-10.46-1.2s-7.18-.45-10.84-.52Z"></path><path fill="#7bce34" d="M999.06 749.92l0-1.34c0-.85-.07-1.71-.12-2.56l-.23-2.55c-.26-3.4-.83-6.76-1.32-10.13l-1-5-.25-1.24c-.09-.42-.21-.83-.31-1.24l-.62-2.46-.6-2.46c-.18-.83-.48-1.62-.7-2.44l-1.43-4.85-1.71-4.76-.43-1.19-.22-.59c-.07-.2-.15-.36-.23-.54l-.93-2.1c-.3-.71-.7-1.36-1-2l-.53-1c-.18-.34-.39-.65-.59-1-.41-.64-.77-1.31-1.2-1.94l-1.3-1.88c-.42-.63-.92-1.21-1.38-1.82-.23-.31-.45-.62-.7-.91l-.27-.31c1.3 2.53 2.61 5.07 3.71 7.71l1 2.34c.32.79.62 1.59.92 2.39l.9 2.4.44 1.2.4 1.22c.51 1.64 1 3.27 1.4 4.94s.69 3.36 1 5 .54 3.38.89 5 .63 3.34 1 5 .78 3.32 1.23 5c.19.83.43 1.65.64 2.49l.68 2.48C997.05 743.84 997.93 746.87 999.06 749.92zM949.26 656.61c1.36.76 2.73 1.47 4 2.31l1 .58c.33.21.64.43 1 .64.63.44 1.29.83 1.89 1.3l1.83 1.36.06.06a70.49 70.49 0 0120.89 7.41 59.51 59.51 0 0110.06 6.94 58.73 58.73 0 014.45 4.34l.59.65-1.54-2.93-.68-1.27c-.23-.42-.48-.82-.73-1.24l-1.48-2.47c-1.91-3.34-4.24-6.43-6.43-9.59l-3.59-4.54-.89-1.14-.45-.57c-.15-.19-.33-.39-.5-.58l-2.07-2.34a63.82 63.82 0 00-9.38-8.29c-.84-.62-1.74-1.15-2.61-1.72-.45-.28-.88-.57-1.33-.84l-1.36-.76a57.58 57.58 0 00-5.6-2.7 59 59 0 00-11.74-3.4 70.84 70.84 0 00-23.5-.23 73.25 73.25 0 00-11.16 2.59c-1.81.57-3.59 1.21-5.34 1.94a45.66 45.66 0 00-5.14 2.47l.42 1.49c3.66.07 7.28.23 10.84.52s7 .67 10.46 1.2a93.74 93.74 0 0119.43 4.94A78.83 78.83 0 01949.26 656.61zM1115.2 631.65a45 45 0 00-5.44-1.7c-1.84-.47-3.69-.85-5.57-1.15a73.4 73.4 0 00-11.41-.95 70.81 70.81 0 00-23.22 3.62 59.17 59.17 0 00-11.13 5.07 56.81 56.81 0 00-5.15 3.49L1052 641c-.4.33-.79.68-1.18 1-.78.7-1.6 1.35-2.34 2.09a62.92 62.92 0 00-8.08 9.56l-1.71 2.61c-.14.21-.3.44-.42.65l-.36.63-.72 1.25-2.89 5c-1.71 3.45-3.56 6.84-5 10.42l-1.11 2.66c-.18.45-.38.89-.55 1.34l-.48 1.35-1.92 5.42c-1.12 3.67-2.27 7.32-3.14 11l-.72 2.77-.61 2.8-.63 2.78-.3 1.4-.26 1.41c-.33 1.87-.77 3.73-1.16 5.59s-.78 3.74-1.18 5.61-.67 3.77-.93 5.67-.32 3.81-.38 5.72c0 1 0 1.92 0 2.88s.07 1.91.12 2.87c.17 1.91.34 3.82.66 5.73a54.06 54.06 0 001.18 5.68 39.92 39.92 0 001.88 5.59l11.81-1.3c.8-3.51 1.26-6.94 1.7-10.36l.33-2.56c.08-.85.2-1.7.26-2.55.21-1.7.38-3.4.5-5.09s.27-3.39.32-5.1.12-3.4.15-5.12.16-3.42.27-5.13.4-3.4.67-5.09l.22-1.26.26-1.26.55-2.5c.17-.84.36-1.67.56-2.5l.68-2.47c.85-3.31 2-6.51 3.08-9.74l1.87-4.73.46-1.19c.16-.39.35-.77.52-1.16l1.05-2.31 1-2.32c.32-.78.76-1.51 1.12-2.27l2.26-4.53 2.53-4.38.63-1.1.32-.54c.1-.18.21-.32.32-.49l1.29-1.9c.42-.65.93-1.21 1.39-1.83l.7-.9c.24-.3.5-.57.75-.86.52-.56 1-1.15 1.52-1.7l1.62-1.61c.52-.55 1.12-1 1.67-1.56.29-.25.56-.52.85-.77l.9-.72c1.15-1 2.4-1.91 3.63-2.86a78.85 78.85 0 018-5.09 93.72 93.72 0 0118.51-7.69c3.31-1 6.71-1.91 10.19-2.7s7-1.49 10.64-2.09z"></path><path fill="#3c8f2d" d="M1062.28,655.1l.13-.11a65.81,65.81,0,0,0-9.77,3.77,59.51,59.51,0,0,0-10.43,6.38,54.79,54.79,0,0,0-4.68,4.09l-1.12,1.09c-.36.38-.7.77-1.05,1.16-.69.78-1.42,1.53-2.07,2.35a64.41,64.41,0,0,0-6.86,10.47l-1.37,2.8c-.11.23-.24.47-.34.7l-.28.67-.56,1.33-.1.25c-.59,2-1.14,4-1.61,6l-.72,2.77-.61,2.8-.63,2.78-.3,1.4-.26,1.41c-.33,1.87-.77,3.73-1.16,5.59s-.78,3.74-1.18,5.61-.67,3.77-.93,5.67-.32,3.81-.38,5.72c0,1,0,1.92,0,2.88s.07,1.91.12,2.87c.17,1.91.34,3.82.66,5.73a54.06,54.06,0,0,0,1.18,5.68,39.92,39.92,0,0,0,1.88,5.59l9.26-1a1.64,1.64,0,0,1,0-.22q-.21-2.57-.36-5.13c-.07-1.71,0-3.42,0-5.13l.06-1.28.11-1.28.24-2.55c.07-.85.15-1.71.25-2.55l.37-2.53c.44-3.39,1.2-6.71,1.88-10l1.27-4.93.32-1.23c.11-.41.25-.81.38-1.22l.75-2.42.74-2.43c.22-.81.57-1.59.83-2.39l1.7-4.77.36-.87.09-.3c.85-3.31,2-6.51,3.08-9.74l1.87-4.73.46-1.19c.16-.39.35-.77.52-1.16l1.05-2.31,1-2.32c.32-.78.76-1.51,1.12-2.27l2.26-4.53,2.53-4.38.63-1.1.32-.54c.1-.18.21-.32.32-.49l1.29-1.9c.42-.65.93-1.21,1.39-1.83l.7-.9c.24-.3.5-.57.75-.86.52-.56,1-1.15,1.52-1.7l1.62-1.61C1061.13,656.11,1061.73,655.62,1062.28,655.1Z"></path><path fill="#7bce34" d="M1030.16,754.89l-1.27-.14c-3.05-6.83-12.34-27.7-23.84-53.84C976.94,637,935.63,541.69,939.86,542.6c5.79,1.23,33.31,45.32,61.36,99.73q4.11,8,8.2,16.18,4.27,8.58,8.21,16.36c1,5.85,1.9,11.9,2.74,18C1026,733.84,1030.16,754.89,1030.16,754.89Z"></path><path fill="#3c8f2d" d="M1030.16,743.19s-7.4-20.14-19.39-59.66S984,609.42,979.55,608c-2.08-.65,4.27,29.24,11.6,61.17,13.18,30.23,25.63,58.33,32.72,74.29Z"></path><path fill="#7bce34" d="M1030.16,754.89l-1.27-.14-19.78-2.23s-2-23.74-4.06-51.61c-1.47-19.79-3-41.66-3.83-58.58-.87-17.35-1.06-29.49.18-28.87,3.52,1.76,10.69,28.36,16.23,61.41,1,5.85,1.9,11.9,2.74,18C1026,733.84,1030.16,754.89,1030.16,754.89Z"></path><path fill="#7bce34" d="M1145,734.74c-5.92-4.91-11.73-9.4-17.08-14-2.66-2.31-5.23-4.6-7.55-7a57.84,57.84,0,0,1-6.15-7.12,38.91,38.91,0,0,1-2.28-3.48q-.23-.43-.48-.84c-.16-.28-.27-.56-.42-.83l-1.3-2.56a45.9,45.9,0,0,0-3.57-5.55,48,48,0,0,0-4.37-5,52.35,52.35,0,0,0-10.56-8,50.09,50.09,0,0,0-12.35-5.14,37.44,37.44,0,0,0-6.84-1.15,31.55,31.55,0,0,0-7.24.27,27.81,27.81,0,0,0-7.28,2.18,33.25,33.25,0,0,0-6.25,3.77,39.44,39.44,0,0,0-5.09,4.58A48.24,48.24,0,0,0,1042,690a64,64,0,0,0-6.28,10.92,90.58,90.58,0,0,0-6.44,23.16c-.3,1.94-.6,3.88-.86,5.82l-.38,2.9c-.12,1-.21,1.94-.34,2.9-.47,3.87-.91,7.72-1.66,11.57l18.52.64a49.2,49.2,0,0,1-.17-10.5,83.33,83.33,0,0,1,1.52-10.27c.72-3.37,1.6-6.67,2.62-9.87s2.1-6.35,3.36-9.35c.61-1.5,1.25-3,2-4.4s1.42-2.82,2.21-4.14a39.5,39.5,0,0,1,2.49-3.76,24.83,24.83,0,0,1,2.76-3.19,16.09,16.09,0,0,1,3-2.33,11,11,0,0,1,3.18-1.3,14.9,14.9,0,0,1,3.78-.35,18.65,18.65,0,0,1,4,.61,21.63,21.63,0,0,1,7.72,4,30.59,30.59,0,0,1,6,6.56c.85,1.23,1.63,2.5,2.37,3.79s1.39,2.63,2.06,4l.47,1,.12.26a2.7,2.7,0,0,0,.15.3l.42.83c.28.54.55,1.1.86,1.62s.62,1,.94,1.53a36.21,36.21,0,0,0,4.32,5.38,51.19,51.19,0,0,0,10,7.94c1.76,1.07,3.52,2.07,5.33,2.95s3.63,1.69,5.47,2.41a74.16,74.16,0,0,0,11.24,3.42c1.91.41,3.82.76,5.76,1a47.44,47.44,0,0,0,5.88.43Z"></path><path fill="#3c8f2d" d="M1028,732.8l.38-2.9c.26-1.94.56-3.88.86-5.82a90.58,90.58,0,0,1,6.44-23.16A64,64,0,0,1,1042,690a48.24,48.24,0,0,1,4.19-5.06,39.44,39.44,0,0,1,5.09-4.58,33,33,0,0,1,3.34-2.24c22.6,1.27,30.07,12.16,32.54,19A28.93,28.93,0,0,0,1083,693a21.63,21.63,0,0,0-7.72-4,18.65,18.65,0,0,0-4-.61,14.9,14.9,0,0,0-3.78.35,11,11,0,0,0-3.18,1.3,16.09,16.09,0,0,0-3,2.33,24.83,24.83,0,0,0-2.76,3.19,39.5,39.5,0,0,0-2.49,3.76c-.79,1.32-1.51,2.7-2.21,4.14s-1.35,2.9-2,4.4c-1.26,3-2.34,6.14-3.36,9.35s-1.9,6.5-2.62,9.87a83.33,83.33,0,0,0-1.52,10.27,49.2,49.2,0,0,0,.17,10.5l-18.52-.64c.75-3.85,1.19-7.7,1.66-11.57C1027.81,734.74,1027.9,733.77,1028,732.8Z"></path><path fill="#7bce34" d="M882.6,734.74c5.92-4.91,11.73-9.4,17.08-14,2.66-2.31,5.23-4.6,7.55-7a57.84,57.84,0,0,0,6.15-7.12,41.24,41.24,0,0,0,2.28-3.48q.23-.43.48-.84c.16-.28.27-.56.42-.83l1.3-2.56a45.9,45.9,0,0,1,3.57-5.55,48,48,0,0,1,4.37-5,52.57,52.57,0,0,1,10.55-8,50.41,50.41,0,0,1,12.35-5.14,37.55,37.55,0,0,1,6.85-1.15,31.6,31.6,0,0,1,7.24.27,27.92,27.92,0,0,1,7.28,2.18,33.25,33.25,0,0,1,6.25,3.77,40.12,40.12,0,0,1,5.09,4.58A50.86,50.86,0,0,1,985.6,690a63.3,63.3,0,0,1,6.27,10.92,90.61,90.61,0,0,1,6.45,23.16c.3,1.94.6,3.88.86,5.82l.38,2.9c.12,1,.21,1.94.34,2.9.47,3.87.91,7.72,1.66,11.57l-18.52.64a49.2,49.2,0,0,0,.17-10.5,81.48,81.48,0,0,0-1.53-10.27,101.3,101.3,0,0,0-2.61-9.87c-1-3.21-2.1-6.35-3.36-9.35-.62-1.5-1.25-3-2-4.4s-1.41-2.82-2.21-4.14a37.62,37.62,0,0,0-2.48-3.76,25.64,25.64,0,0,0-2.76-3.19,16.44,16.44,0,0,0-2.95-2.33,11,11,0,0,0-3.18-1.3,15,15,0,0,0-3.78-.35,18.65,18.65,0,0,0-4,.61,21.63,21.63,0,0,0-7.72,4,30.63,30.63,0,0,0-6,6.56c-.84,1.23-1.62,2.5-2.36,3.79s-1.4,2.63-2.06,4l-.47,1-.12.26c0,.09-.07.14-.15.3l-.42.83c-.28.54-.55,1.1-.86,1.62s-.62,1-.94,1.53a35.64,35.64,0,0,1-4.33,5.38,50.85,50.85,0,0,1-10,7.94c-1.76,1.07-3.52,2.07-5.33,2.95s-3.63,1.69-5.47,2.41A74.16,74.16,0,0,1,894.82,735c-1.91.41-3.82.76-5.76,1a47.58,47.58,0,0,1-5.88.43Z"></path><path fill="#3c8f2d" d="M999.56,732.8l-.38-2.9c-.26-1.94-.56-3.88-.86-5.82a90.61,90.61,0,0,0-6.45-23.16A63.3,63.3,0,0,0,985.6,690a50.86,50.86,0,0,0-4.19-5.06,40.12,40.12,0,0,0-5.09-4.58,33,33,0,0,0-3.34-2.24c-22.6,1.27-30.07,12.16-32.54,19a28.93,28.93,0,0,1,4.17-4.11,21.63,21.63,0,0,1,7.72-4,18.65,18.65,0,0,1,4-.61,15,15,0,0,1,3.78.35,11,11,0,0,1,3.18,1.3,16.44,16.44,0,0,1,2.95,2.33,25.64,25.64,0,0,1,2.76,3.19,37.62,37.62,0,0,1,2.48,3.76c.8,1.32,1.52,2.7,2.21,4.14s1.35,2.9,2,4.4c1.26,3,2.34,6.14,3.36,9.35a101.3,101.3,0,0,1,2.61,9.87,81.48,81.48,0,0,1,1.53,10.27,49.2,49.2,0,0,1-.17,10.5l18.52-.64c-.75-3.85-1.19-7.7-1.66-11.57C999.77,734.74,999.68,733.77,999.56,732.8Z"></path><path fill="#abbcca" d="M1046.16,826.06h-56a14.61,14.61,0,0,1-14.44-12.43l-9.87-65.76c-.68-4.56,32.83-.94,53.35-1.15,19.34-.19,50.94-2,50.59.29l-9.19,66.62A14.6,14.6,0,0,1,1046.16,826.06Z"></path><path fill="#91a6b5" d="M1017.81,746.74c-20.52.2-52.65-3.43-52,1.13l9.87,65.76a14.61,14.61,0,0,0,14.44,12.43h22.15a35.33,35.33,0,0,1-9.12-23.43c0-1.79.22-13.33,8.6-22.53,5-5.5,13.12-8.32,29.35-13.94,7.8-2.7,14-4.07,20.76-9.79a47.8,47.8,0,0,0,7.67-7.72l.22-1.64C1070.13,744.73,1037.14,746.55,1017.81,746.74Z"></path></g><g data-name="Patient/Head/Female"><path fill="#000001" d="M878.32,339.09s22-9.56,30.49,9.35,21.53,79.67,43.72,83.05c0,0-12.23,7.55-24.36-7.29S908,395.58,905.7,388.76a69.46,69.46,0,0,0,13.62,34.73c12.75,17,31.15,48.82,7.61,54.38,0,0,12.23-5.28.05-20.44S854.34,391,878.86,351.76C883.66,344.08,878.32,339.09,878.32,339.09Z"></path><path fill="#ea9d7d" d="M861.62,336.22c12.39,2.41,20,18.2,18.25,36.53h.1c3.38.66,5.38,5,4.46,9.77s-4.42,8-7.81,7.38a4.74,4.74,0,0,1-1.29-.47c-6.88,13.87-20.25,21.6-31.26,19.45-13.65-2.66-18.48-19.51-14.46-40.14S848,333.55,861.62,336.22Z"></path><path fill="#ea9d7d" d="M848.42,419.72c.63-2.21-1.95-7.61-3.6-10.72,10.86,1.66,23.78-6,30.51-19.56a4.74,4.74,0,0,0,1.29.47s1.06,28.21,7.17,28.56c7.15,6.13,30.51,26.89,25.75,36.53-4,8.07-25.56,3.91-57.71-2.3a16.26,16.26,0,0,1-8.39-4c-6.75-6.43-4.9-18-4-20.61C840.71,424.68,847.52,422.91,848.42,419.72Z"></path><path fill="#d18165" d="M877.53 401.15c-.71-6-.91-11.24-.91-11.24a4.74 4.74 0 01-1.29-.47C868.6 403 855.68 410.66 844.82 409a46.92 46.92 0 013.14 7.06l.82.19C858.57 418.16 870.23 412.25 877.53 401.15zM880.08 377a4.79 4.79 0 011.81 2.34 5.61 5.61 0 01-1.19 5.8 6.51 6.51 0 01-1.15 1 6.05 6.05 0 01-1.36.58c.2-.48.44-.86.65-1.26s.42-.77.56-1.17a9.88 9.88 0 00.76-2.24A13.71 13.71 0 00880.08 377z"></path><path fill="#d18165" d="M883.79,418.47c-3.73-.22-5.57-10.78-6.44-19l-5.48,2.46-4.69,9.8s9,2,4.69,11.2c-3.83,8.29-14,27.11-28.69,25.5,2.13,1.18,5.06,2.71,8.65,4.27,23.54,10.24,55.67,13.47,60.35,4.22S893.48,426.69,883.79,418.47Z"></path><path fill="#000001" d="M834.44,354.49s6.27-9.75,8.09-7.57,5.31,8.06,17.24,7.43c0,0,7.94,10.4,9.64,22.61s10.56-4.2,10.56-4.2,11.39-28.4-.92-35.16-24.64-6.91-36.94,0S834.44,354.49,834.44,354.49Z"></path><path fill="#be3e5f" d="M835.74,395.38c10,.46,11.12-7.22,11.12-7.22a26.53,26.53,0,0,1-12.42.86S837.38,392.35,835.74,395.38Z"></path><path fill="#d18165" d="M838.53,367.34a19.6,19.6,0,0,1,.13,6.26,10.71,10.71,0,0,1-.92,3.18c-.28.57-.55.92-.81,1.37s-.51.84-.74,1.27a5.69,5.69,0,0,0-.8,2.36,1.17,1.17,0,0,0,.29.81,2.82,2.82,0,0,0,1,.64,24.09,24.09,0,0,0,5.84,1,12.39,12.39,0,0,1-6.34.45,3.78,3.78,0,0,1-1.69-.88,2.93,2.93,0,0,1-.93-1.92,6.29,6.29,0,0,1,.92-3.44q.41-.72.84-1.38c.27-.42.62-.89.81-1.22a12,12,0,0,0,1.06-2.6C837.69,371.37,838.08,369.37,838.53,367.34Z"></path><path fill="#000001" d="M844.78 363.23a44.64 44.64 0 015.89 1.37 19.23 19.23 0 012.71 1.1c.91.41 1.72 1 2.67 1.52a7 7 0 00-2-2.52 9 9 0 00-2.88-1.55 10.39 10.39 0 00-3.21-.5A8 8 0 00844.78 363.23zM834.55 361.29a8.68 8.68 0 00-2.76-.64c-.17.49-.34 1-.5 1.49h0a19 19 0 012.91.3c1 .14 1.92.46 3 .71A7 7 0 00834.55 361.29zM832.21 374.9a1.54 1.54 0 001.8-1.21l.86-4.4a1.53 1.53 0 00-3-.58L831 373.1A1.53 1.53 0 00832.21 374.9zM847.63 375.84a1.53 1.53 0 001.79-1.21l.86-4.4a1.53 1.53 0 00-3-.58l-.86 4.39A1.53 1.53 0 00847.63 375.84zM860.12 350.06a62.06 62.06 0 014.43 7.58 75.1 75.1 0 013.44 8 63.72 63.72 0 013.75 16.9A49.61 49.61 0 01863 415.18a50.49 50.49 0 006.48-15.68 49.36 49.36 0 00.74-16.83 61.67 61.67 0 00-4.35-16.23 73.24 73.24 0 00-3.66-7.57 61.53 61.53 0 00-4.5-7z"></path></g><g data-name="Patient/Bottom/Sitting"><path fill="#ea9d7d" d="M785.1,701l-4.05-6.75-24.34,12.21a20,20,0,0,1,1.58,7.89C758.15,718.46,785.1,701,785.1,701Z"></path><path fill="#ffc065" d="M925.54,552.22s21.36,43.29-18.47,64.07-64.64,28.29-65.8,36.94,6.35,20.21,2.89,54.84-9.24,75.61-9.24,75.61-30.59,4.62-35.21,0,1.16-62.59-4-114.7c0,0-9.81-25,3.18-40.57l11-10.39-64.93-.57s17.89,19,24,36.07,14.14,41,14.14,41l-27.41,13.28S716.88,648,703.61,636.21s-28.29-45-5.2-54S774.3,561.71,833.75,560l2.17-7.76Z"></path><path fill="#ffaa39" d="M839.73,588.4,809.81,618l-64.93-.57s17.89,19,24,36.07,14.14,41,14.14,41l-27.41,13.28c3.91-9.52,7.93-23.59,5.09-39.35-6.17-34.32-36.93-47.28-34-60.78C729,597.16,751.75,587.15,839.73,588.4Z"></path><path fill="#7c2f13" d="M755.33,707.69a116.13,116.13,0,0,0,3.27-13.87,78.17,78.17,0,0,0,1.07-14,66.5,66.5,0,0,0-.53-6.92,60.89,60.89,0,0,0-1.22-6.82A81.08,81.08,0,0,0,753.5,653a85.17,85.17,0,0,0-6.62-12.37c-1.28-2-2.65-3.92-4.08-5.82s-3-3.73-4.51-5.55c-3.09-3.66-6.43-7.09-9.32-11a25.27,25.27,0,0,1-2-3.15,14.79,14.79,0,0,1-1.39-3.59,11.29,11.29,0,0,1-.12-4,10.66,10.66,0,0,1,1.48-3.78,18.1,18.1,0,0,1,5.61-5.39,38.78,38.78,0,0,1,6.69-3.43,88.25,88.25,0,0,1,14.11-4.1c4.76-1,9.55-1.78,14.34-2.41s9.61-1.08,14.42-1.39c9.62-.59,19.24-.71,28.84-.49s19.19.71,28.76,1.7v.5c-19.16,1.37-38.25,2.05-57.22,3.62-9.47.75-18.94,1.54-28.23,3.11a104.79,104.79,0,0,0-13.63,3.23,41.88,41.88,0,0,0-6.32,2.59,15.16,15.16,0,0,0-5.1,4,8.23,8.23,0,0,0-1.38,2.74,8,8,0,0,0-.15,3.12,16,16,0,0,0,2.67,6.18,54.86,54.86,0,0,0,4.34,5.6c1.54,1.81,3.16,3.57,4.79,5.34,3.27,3.51,6.53,7.05,9.62,10.82a71.49,71.49,0,0,1,8.14,12.21,55,55,0,0,1,5,13.94,62.51,62.51,0,0,1,1.12,7.34,61.17,61.17,0,0,1,.18,7.41,65.9,65.9,0,0,1-7.75,28Z"></path><path fill="#d18165" d="M763.59,816.57c9.23-8.28,31.17-18.67,36.17-32.9,3.84,3.83,25.59,1.3,32.85.33h0s3.51,11.21,3.71,19.29,0,10.39,0,10.39l-13.47,1.73V812s-7.89.38-12.12,4.62-16.36,9.81-29.44,9.23S754.35,824.84,763.59,816.57Z"></path><path fill="#25beef" d="M781.3,825.8c13.08.58,25.2-5,29.43-9.23S822.86,812,822.86,812v3.46l13.46-1.73s.2-2.31,0-10.39a65.46,65.46,0,0,0-1.92-12.66c-.91-3.82-1.8-6.63-1.8-6.63-7.24,1-29,3.5-32.83-.33a26.51,26.51,0,0,1-4.52,7.74c-.63.79-1.3,1.56-2,2.31l-1.8,1.8c-.78.75-1.58,1.5-2.43,2.24-8.53,7.42-19.55,13.55-25.43,18.81C754.36,824.84,768.21,825.23,781.3,825.8Z"></path><path fill="#ef3e3b" d="M832.61 784h0s3.51 11.21 3.71 19.29c0 1.89.07 3.46.08 4.76-4.76.56-10.36.71-8.42-2.09 3.2-4.65 1.63-21.58 1.63-21.58zM761.72 818.52a15.64 15.64 0 011.87-1.95c3.89-3.48 10-7.34 16.2-11.7A27.08 27.08 0 01793.92 812c3.37 3.38 4.2 9.32 5.12 10.25-3 3.68-37.34 2.8-38.32-.51a.35.35 0 010-.11A4.68 4.68 0 01761.72 818.52z"></path><path fill="#7c2f13" d="M781.29 825.8c-10.5-.46-21.49-.8-20.64-5.2 32.84 7.88 45.84-5 48.23-8.84s8.2-4.24 8.2-4.24c10.63-.11 16.32-3.5 19.14-6.09 0 .63.08 1.26.1 1.86.19 8.08 0 10.39 0 10.39l-13.47 1.73V812s-7.89.38-12.12 4.62S794.37 826.38 781.29 825.8zM793.26 793.72c.62.42 1.28.82 1.94 1.19a18.21 18.21 0 002.77 1.34 12.14 12.14 0 003.27.89 8.5 8.5 0 00-1.84-2.95 10.93 10.93 0 00-2.61-2.07 10.18 10.18 0 00-1.54-.71C794.62 792.2 794 793 793.26 793.72zM789 797.76c.44.27.89.55 1.36.8a22.94 22.94 0 002.77 1.35 12.51 12.51 0 003.27.88 8.21 8.21 0 00-1.84-2.95 10.93 10.93 0 00-2.61-2.07c-.16-.09-.34-.17-.52-.25C790.68 796.27 789.88 797 789 797.76z"></path><path fill="#d18165" d="M732.92,754.71c5.81-11,22.8-28.29,22.57-43.38,4.92,2.27,24.46-7.63,30.93-11.05h0s7.18,9.31,10.15,16.83,3.6,9.74,3.6,9.74l-12,6.29-1.2-3.25s-7.27,3.08-9.78,8.52-11.95,14.86-24.42,18.84S727.12,765.67,732.92,754.71Z"></path><path fill="#25beef" d="M752.73,757.25c12.48-4,21.92-13.41,24.43-18.84s9.78-8.53,9.78-8.53l1.2,3.25,12-6.28s-.61-2.23-3.59-9.75a66.9,66.9,0,0,0-6.18-11.22c-2.18-3.26-4-5.59-4-5.59-6.47,3.41-26,13.31-30.93,11a26.29,26.29,0,0,1-1.56,8.83c-.32,1-.68,1.91-1.07,2.85-.34.78-.7,1.54-1.06,2.31-.48,1-1,2-1.51,2.95-5.44,9.91-13.66,19.47-17.36,26.44C727.12,765.66,740.26,761.23,752.73,757.25Z"></path><path fill="#ef3e3b" d="M786.42 700.28h0s7.18 9.31 10.15 16.83c.7 1.75 1.26 3.21 1.72 4.43-4.26 2.17-9.46 4.25-8.62 1 1.4-5.47-5.93-20.81-5.93-20.81zM731.85 757.18a15.9 15.9 0 011.07-2.47c2.45-4.61 6.87-10.36 11.16-16.58A27.15 27.15 0 01759.81 740c4.33 2 7.17 7.28 8.35 7.84-1.55 4.5-34.07 15.54-36.13 12.78a.61.61 0 01-.07-.1A4.66 4.66 0 01731.85 757.18z"></path><path fill="#7c2f13" d="M752.73 757.25c-10 3.2-20.45 6.68-21.17 2.26 33.54-4 41.29-20.54 42.2-25s6.22-6.8 6.22-6.8c9.94-3.79 14.11-8.93 15.86-12.34.26.58.51 1.15.73 1.72 3 7.51 3.6 9.74 3.6 9.74l-12 6.29-1.2-3.25s-7.27 3.08-9.78 8.52S765.2 753.27 752.73 757.25zM752.86 723c.73.18 1.49.33 2.23.44a17.94 17.94 0 003.07.31 12.21 12.21 0 003.38-.3 8.84 8.84 0 00-2.76-2.14 11.16 11.16 0 00-3.16-1 10.69 10.69 0 00-1.69-.13C753.61 721.11 753.25 722.07 752.86 723zM750.29 728.27c.51.1 1 .2 1.55.28a23.31 23.31 0 003.07.3 12.21 12.21 0 003.38-.3 8.38 8.38 0 00-2.75-2.13 10.93 10.93 0 00-3.17-1l-.57-.06C751.32 726.3 750.83 727.28 750.29 728.27z"></path><path fill="#ffaa39" d="M834.92,783.68c-.78.12-1.56.23-2.35.33h0c-1.21.17-2.42.32-3.63.46h-.07c-1.19.14-2.39.27-3.58.39l-1.15.12h0c-1.65.16-3.28.29-4.91.41l-2.09.14-.38,0-2,.09h0l-2.16.07h0c-.71,0-1.41,0-2.1,0h0a38.72,38.72,0,0,1-7.27-.6h0c13.94-12.7,20.1-24.91,23.14-33.48,10.12-28.51,4.3-68.53,2.89-78.21-1.53-10.53-3.24-17.37.34-25.57,4.69-10.71,14-14.45,31.41-22.92,15.84-7.7,30-14.6,40.46-22.78a19.92,19.92,0,0,0,6.16-23.83c-2.47-5.38-7.38-9.8-16.71-10.5a96.4,96.4,0,0,1-44.89-15.62h79.62v0l0,0,0,.09,0,.08.08.18,0,.06.14.32a.37.37,0,0,1,.05.11c0,.09.09.19.13.29l.07.16.16.39,0,.11.23.57a1.11,1.11,0,0,0,.07.16c.06.16.12.32.19.49l.09.23c.06.18.13.36.2.55a1.46,1.46,0,0,1,.07.19c.1.26.2.52.29.8l.06.17q.12.33.24.69c0,.1.07.2.1.3s.15.44.22.67l.09.28c.1.32.2.65.31,1a.57.57,0,0,0,0,.14c.08.3.17.6.26.91,0,.11.06.23.1.34l.21.8.09.35c.1.38.2.76.29,1.16h0l.27,1.19c0,.13.06.25.08.38.07.3.13.6.19.91,0,.13.06.27.08.4l.21,1.11,0,.2c.08.44.15.88.22,1.33,0,.13,0,.26,0,.39.05.33.1.66.14,1l.06.46q.06.54.12,1.11l0,.31c0,.47.08,1,.12,1.43,0,.13,0,.25,0,.38l.06,1.1c0,.16,0,.33,0,.49,0,.37,0,.74,0,1.12,0,.13,0,.26,0,.39,0,.5,0,1,0,1.51,0,.11,0,.22,0,.33,0,.4,0,.8-.06,1.21,0,.17,0,.33,0,.5,0,.38,0,.75-.08,1.13,0,.15,0,.3,0,.45-.06.52-.11,1-.18,1.56,0,.07,0,.15,0,.22q-.09.68-.21,1.35c0,.17-.05.33-.08.5-.07.38-.15.76-.23,1.14,0,.16-.06.32-.1.49-.12.52-.24,1-.38,1.56a39.46,39.46,0,0,1-3.37,8.58q-.41.74-.84,1.47l-.31.53c-.35.57-.73,1.13-1.12,1.69l-.3.43a42,42,0,0,1-2.66,3.32l-.36.4c-.5.55-1,1.08-1.55,1.61a49.18,49.18,0,0,1-10.4,7.73c-.6.34-1.2.67-1.83,1q-5.6,2.93-10.8,5.51c-2.3,1.15-4.55,2.25-6.73,3.32l-3.23,1.56c-2.12,1-4.17,2-6.16,2.93l-5.75,2.72c-11.11,5.2-19.71,9.18-25.38,12.69a37.49,37.49,0,0,0-3.68,2.55,16.75,16.75,0,0,0-1.83,1.64,7.34,7.34,0,0,0-2.24,4,16.92,16.92,0,0,0-.06,3.43,96.46,96.46,0,0,0,1.59,9.7c.09.52.19,1,.28,1.59s.17.95.25,1.44.17,1,.25,1.52a129.2,129.2,0,0,1,1.4,25.14c0,.94-.07,1.89-.12,2.87-.15,2.86-.38,5.9-.7,9.15-.13,1.29-.27,2.6-.4,3.91l0,.36c-.27,2.63-.55,5.28-.85,7.93l0,.33c-.15,1.33-.29,2.66-.44,4l-.57,5h0c-.19,1.6-.37,3.2-.56,4.78l0,.25c-.25,2.14-.51,4.26-.76,6.35-.12,1-.25,2-.37,3l0,.29c-.12.93-.23,1.85-.35,2.77l0,.36c-.24,1.92-.47,3.81-.71,5.65l0,.34c-.24,1.88-.47,3.71-.7,5.47-.94,7.29-1.77,13.5-2.36,17.88,0,.27-.08.54-.11.8s-.07.51-.1.76c-.33,2.41-.57,4.1-.68,4.88C835,783.51,834.92,783.68,834.92,783.68Z"></path><path fill="#7c2f13" d="M803,785.25c2.34-2.49,4.6-5,6.73-7.67a98.67,98.67,0,0,0,6-8.18,88.6,88.6,0,0,0,5-8.73,77.8,77.8,0,0,0,3.79-9.23c4.08-12.7,5.22-26.23,5.62-39.71a240.92,240.92,0,0,0-2.08-40.66c-.49-3.37-1-6.76-1.24-10.23a32.76,32.76,0,0,1,0-5.24,27.77,27.77,0,0,1,1-5.18,28.14,28.14,0,0,1,4.92-9.34,34.56,34.56,0,0,1,8-7c2.91-2,5.94-3.64,9-5.27s6.07-3.2,9.09-4.76c6.07-3.14,12.17-6.19,18.15-9.38a192.21,192.21,0,0,0,17.37-10.3c1.38-.94,2.72-1.92,4-2.91l1-.75.49-.37.43-.37a17.88,17.88,0,0,0,1.62-1.52,19.55,19.55,0,0,0,2.61-3.6,20.62,20.62,0,0,0,1.65-4.12,16.65,16.65,0,0,0,0-8.75,15.54,15.54,0,0,0-4.45-7.45,17,17,0,0,0-8-3.84c-.77-.14-1.54-.29-2.33-.37l-2.55-.33-2.6-.34c-.86-.12-1.72-.3-2.58-.46l-2.57-.48-2.54-.62c-1.7-.38-3.36-.91-5-1.4s-3.29-1.11-4.93-1.67-3.23-1.24-4.8-2a88.82,88.82,0,0,1-9.24-4.67,69.63,69.63,0,0,1-8.6-5.7l.29-.41a101.09,101.09,0,0,0,18.48,8.4,98.47,98.47,0,0,0,19.56,4.63c.82.11,1.65.24,2.48.32l2.49.18,2.55.2c.91.05,1.82.17,2.74.31a21.57,21.57,0,0,1,10.38,4.56c6.1,5.11,8.33,13.69,6.44,21.19a23.52,23.52,0,0,1-2.14,5.37,24.62,24.62,0,0,1-3.4,4.66,23,23,0,0,1-2.1,2l-.55.47-.53.39-1.05.8c-1.41,1.05-2.87,2-4.33,3A181.35,181.35,0,0,1,879,618.92c-6.15,3.06-12.35,6-18.57,8.79s-12.55,5.41-18.34,8.74a32.13,32.13,0,0,0-7.77,6,23.47,23.47,0,0,0-4.94,8.46,25,25,0,0,0-1.16,9.81,100.08,100.08,0,0,0,1.32,10.08c2.25,13.48,4.35,27.1,4.64,40.92a129.4,129.4,0,0,1-1.2,20.7l-.36,2.58c-.14.86-.32,1.71-.47,2.57-.35,1.71-.6,3.43-1.07,5.11s-.82,3.39-1.36,5.06l-1.67,5a66.93,66.93,0,0,1-4.47,9.5,71.6,71.6,0,0,1-5.76,8.7,83.39,83.39,0,0,1-14.52,14.68Z"></path></g><g data-name="Patient/Torso"><path fill="#ea9d7d" d="M705.5,536.92c2.42,0,1.21-2.56,1.21-2.56-27.9-.6-22.78-4.07-22.32-5.73s21-1.06,26.31-1.06,7-1.42,7-1.42c-11.16-9.72-6.33-11.4-3.62-11.4,1.84,0,10.61,7.35,16.07,12.08a13,13,0,0,0,10.41,3l49.32-7.12a6.91,6.91,0,0,0,5.49-4.44L800.7,504c.28-.77,2.79-7.64,12.22-34.44,10.08-28.67,14.76-43.24,21.71-44.84,4-.93,1.81,18.12,15,25.18,9.7,5.22,36.18-1.08,36.18-1.08l-1.47-29.87c27.69,4.75,39.05,21.65,39.05,21.65s41,62.69,43.89,71.31c9,27.06,10.45,86.45,10.68,102a23.8,23.8,0,0,0,.73,5.51L982.69,637c5.44,15.81,6.22,16.21,4.81,19.94s-5.8-9.9-6.92-13-2.14-2.57-2.14-2.57c3.58,30.9,1.06,27.14-.74,27.26s-3.86-21.51-4.22-22.4-2.23.61-2.23.61c.92,18.23,1.74,21.5-1.12,24s-4.24-20.43-4.4-22.84-2.64-1-2.64-1c1.26,27.88-2.54,23-4.23,22.65s-2.45-20.84-2.81-26.18-1.88-6.91-1.88-6.91c-8.95,11.78-10.95,7.08-11.14,4.37-.13-2,8.25-13.06,12.48-18.49a8.11,8.11,0,0,0,1.49-6.81l-20.11-85.65A27.41,27.41,0,0,0,933.7,522L920.32,499.8l-12.69-21.09L837.37,498c-3.07,15.15-8.89,38.17-17.2,46.8-13.69,14.22-68.82,9.52-83.54,7.45a24.14,24.14,0,0,0-7.25.08l-14.07,2.26C699.17,559,698.72,559.7,695.1,558s10.25-5.13,13.42-6,2.72-2,2.72-2c-31.08,1.51-27.16-.76-27.16-2.57s21.73-2.41,22.63-2.71-.45-2.26-.45-2.26c-18.25-.31-21.57.3-23.83-2.72S703.09,536.92,705.5,536.92Z"></path><path fill="#d18165" d="M684.08,547.48c0-1.81,21.73-2.41,22.63-2.71s-.45-2.26-.45-2.26c-13.93-.23-19.16.06-21.86-1.13,6.63-2,19.08.38,40.67,2.64,39.22,4.11,50.68,1.62,55.2.48,12.43-3.13,28.39-4.54,31.68-16.8,13.21-49.23,22.27-52.88,21.95-70.32l6,26.45s-6.9,47.63-19.73,60.95c-13.68,14.21-68.7,9.53-83.49,7.45a24.47,24.47,0,0,0-7.3.08l-14.07,2.26C699.17,559,698.72,559.7,695.1,558s10.25-5.13,13.42-6,2.72-2,2.72-2C680.16,551.56,684.08,549.29,684.08,547.48Z"></path><path fill="none" stroke="#2f170b" stroke-miterlimit="10" stroke-width="2" d="M717.72,526.15s.68,16.73,16.07,15.6"></path><line x1="741.95" x2="741.95" y1="529.68" y2="551.86" fill="none" stroke="#2f170b" stroke-linecap="round" stroke-linejoin="round" stroke-width="6"></line><path fill="#ffc065" d="M844.84,421.81s-13,.8-16.68,6.35c-3.27,4.88-15.76,38.55-24.26,62.07-4.44,12.28-7,18.93-8.47,22.49a5.32,5.32,0,0,0,2,6.42c7.89,5.36,26.13,17.47,30,17.65,0,0,29.46-54.24,23.22-69.12S844.84,421.81,844.84,421.81Z"></path><path fill="#ffaa39" d="M802.24,522.28c1-4.62,3.26-11.26,8.94-16.19,5.3-4.6,9.06-3.79,12-8.16,3.86-5.71-.76-9.8.66-21.18,1.13-9,4.5-10.23,7.8-22.52a84,84,0,0,0,2.77-17.53c1,11.94,2.92,35.82,2.92,35.83l2.57,11.3s-.07,2.37-.41,6.22q4.26,38-.17,39.06c-1.36.32-3-.7-5.58-5.58-1.59,5.06-3.89,8.77-6.36,13.26-4.35-2.14-8.91-4.57-13.61-7.32C809.65,527.08,805.81,524.66,802.24,522.28Z"></path><path fill="#ffc065" d="M816.1,559c-13.05-14.66-10.32-39.11.12-48.84,5.19-4.83,11.15-5,13.93-11.49,2.6-6.11-1.31-11.66-1.31-17,0-10.47,13.35-34.82,12.62-39.07l-3.07-17.9a1.73,1.73,0,0,1,.93-1.83s6.33-1.88,6.52-.76l1.83,10.5a18.13,18.13,0,0,0,18.46,15h.49a18.16,18.16,0,0,0,17.57-18l.1-10.8c6.6,0,18.52,2.1,30.27,10.61,13.61,9.87,43.77,61.63,53.62,78.15a2.64,2.64,0,0,1-1.15,3.73l-31.3,14.76L912.5,486.82,925.87,551a1.83,1.83,0,0,1-1.79,2.2l-77,17.32C844.48,570.7,827.28,571.57,816.1,559Z"></path><path fill="#d18165" d="M900.73,467.24l4.84-6.85c6.6,8.37,18.79,19.44,29.47,35.08,8.33,12.19,13.72,24.59,16.11,29.83,6.56,14.36,5.23,21.69,9.6,57.12,2.63,21.28,3.94,31.92,5.32,37.48,0,0,9.88,39.85,5.06,49.72a2.85,2.85,0,0,1-1,1.13c-2.86,2.46-4.24-20.43-4.4-22.84s-2.64-1-2.64-1c1.26,27.88-2.54,23-4.23,22.65s-2.45-20.76-2.8-26.14h0v0c-.35-5.33-1.88-6.91-1.88-6.91-8.95,11.78-10.95,7.08-11.14,4.37-.13-2,8.25-13,12.48-18.49a8.11,8.11,0,0,0,1.49-6.81l-20.11-85.65A27.41,27.41,0,0,0,933.7,522Z"></path><path fill="#ffaa39" d="M905.57,460.39c6.6,8.37,18.79,19.44,29.47,35.08A173.46,173.46,0,0,1,948.74,520l-13,6.13,0,0a27.2,27.2,0,0,0-2-4.09l-21.52-35.76h0l-11.45-19Z"></path><path fill="#ffaa39" d="M904.35,536.27c2.74-10.2-3.71-19.71-5.45-22.28-11.68-17.23-39.87-23.12-70.09-12.93a109.14,109.14,0,0,1,48.61-16.81c15.6-1.44,15.63-7.54,16.3-14.57.76-8.09,6.7-13.9,8-14.37A26.83,26.83,0,0,1,909,470.06l3,14.6.47,2.19,0,0,12.66,60.8c.22,1.15.75,2.32.83,3.16.24,2.57-2,2.45-2,2.45l-76.93,17.3c-6.22.58-7.58-.21-7.58-.21S897.45,562,904.35,536.27Z"></path></g><g><rect width="190.42" height="123.25" x="509.85" y="351.1" fill="#9d9f9f" rx="4.1" transform="rotate(-180 605.06 412.725)"></rect><rect width="20.56" height="123.25" x="509.85" y="351.1" fill="#454851" rx="1.35" transform="rotate(-180 520.135 412.725)"></rect><path fill="#9d9f9f" d="M558.11,479.46H652a0,0,0,0,1,0,0v19.29a5.59,5.59,0,0,1-5.59,5.59H563.7a5.59,5.59,0,0,1-5.59-5.59V479.46A0,0,0,0,1,558.11,479.46Z" transform="rotate(-180 605.06 491.905)"></path><path fill="#454851" d="M558.11,479.46h13.31a0,0,0,0,1,0,0v22.78a2.11,2.11,0,0,1-2.11,2.11h-9.1a2.11,2.11,0,0,1-2.11-2.11V479.46A0,0,0,0,1,558.11,479.46Z" transform="rotate(-180 564.765 491.905)"></path><rect width="24" height="45.54" x="593.06" y="445.44" fill="#e3eaf3"></rect></g><g data-name="Chair"><path fill="#c9effb" d="M337,557.89H247.45a18.16,18.16,0,0,1-18-20.71l16.24-114.62a18.16,18.16,0,0,1,18-15.61h57a18.15,18.15,0,0,1,18,15.61L355,537.18A18.16,18.16,0,0,1,337,557.89Z"></path><path fill="#80cbe8" d="M264.87,516.3c-4-4.5-4.48-15.32-5.39-37a264.78,264.78,0,0,1,2.31-49.29,212.2,212.2,0,0,1,4.72-23.1H263.7a18.16,18.16,0,0,0-18,15.61L229.47,537.18a18.16,18.16,0,0,0,18,20.71H337a18.16,18.16,0,0,0,18-20.71l-1-6.73c-3.07-1.23-6.17-2.34-9-3.36C304.86,512.74,278.56,531.65,264.87,516.3Z"></path><path fill="#c9effb" d="M254,628a4.29,4.29,0,0,1-4.2-5.17c2.6-12.15,14.83-14.86,29.53-14.86H428.11c14.7,0,26.94,2.71,29.53,14.86a4.29,4.29,0,0,1-4.2,5.17Z"></path><path fill="#80cbe8" d="M319.86 607.94H279.32c-14.7 0-26.93 2.71-29.53 14.86A4.29 4.29 0 00254 628h35.83C289.82 611.39 303.27 607.94 319.86 607.94zM307.12 628h93.19a0 0 0 010 0v8.17a3 3 0 01-3 3H310.12a3 3 0 01-3-3V628A0 0 0 01307.12 628z"></path><path fill="#59a4ce" d="M345.63 639.14H361.8a0 0 0 010 0v20.49a3 3 0 01-3 3H348.63a3 3 0 01-3-3V639.14A0 0 0 01345.63 639.14zM348.63 760.79H358.8a3 3 0 013 3v20.49a0 0 0 010 0H345.63a0 0 0 010 0V763.79A3 3 0 01348.63 760.79z"></path><line x1="353.72" x2="353.72" y1="662.63" y2="760.79" fill="none" stroke="#59a4ce" stroke-miterlimit="10" stroke-width="4"></line><path fill="none" stroke="#59a4ce" stroke-miterlimit="10" stroke-width="4" d="M269.24,803.14h0a18.86,18.86,0,0,1,18.87-18.86H419.32a18.86,18.86,0,0,1,18.87,18.86h0"></path><circle cx="269.24" cy="813.35" r="12.71" fill="#69baef"></circle><circle cx="269.24" cy="813.35" r="6.74" fill="#59a4ce"></circle><circle cx="438.19" cy="813.35" r="12.71" fill="#69baef"></circle><circle cx="438.19" cy="813.35" r="6.74" fill="#59a4ce"></circle></g><g data-name="Doctor/Botoom/Sitting"><path fill="#ea9d7d" d="M424.24,701.19l4.05-6.76,24.34,12.21a20.09,20.09,0,0,0-1.57,7.89C451.19,718.67,424.24,701.19,424.24,701.19Z"></path><path fill="#ef3e3b" d="M283.8,552.43s-21.36,43.3,18.47,64.07,64.65,28.29,65.8,37-6.35,20.2-2.88,54.83,9.23,75.61,9.23,75.61,30.59,4.62,35.21,0-1.15-62.59,4-114.7c0,0,9.81-25-3.17-40.56l-11-10.39,64.94-.58s-17.9,19.05-24,36.07-14.14,41-14.14,41L453.79,708s38.67-59.74,51.95-71.57,28.28-45,5.19-54-75.88-20.53-135.34-22.26l-2.16-7.76Z"></path><path fill="#c82833" d="M369.61,588.61l29.92,29.63,64.94-.58s-17.9,19.05-24,36.07-14.14,41-14.14,41L453.79,708c-3.91-9.52-7.94-23.59-5.1-39.34,6.17-34.33,36.93-47.29,34-60.79C480.37,597.37,457.6,587.36,369.61,588.61Z"></path><path fill="#d18165" d="M445.75,816.78c-9.23-8.27-31.16-18.66-36.17-32.9-3.83,3.84-25.59,1.3-32.84.33h0s-3.52,11.21-3.71,19.29,0,10.39,0,10.39l13.46,1.73v-3.46s7.89.39,12.13,4.62S415,826.59,428.05,826,455,825.05,445.75,816.78Z"></path><path fill="#abbcca" d="M428.05,826c-13.09.58-25.21-5-29.44-9.23s-12.12-4.62-12.12-4.62v3.46L373,813.89s-.19-2.31,0-10.39a67,67,0,0,1,1.92-12.66c.92-3.82,1.8-6.63,1.8-6.63,7.25,1,29,3.5,32.84-.33a26.29,26.29,0,0,0,4.52,7.74c.62.79,1.3,1.56,2,2.31s1.18,1.2,1.79,1.8c.79.75,1.59,1.5,2.44,2.24,8.53,7.43,19.54,13.55,25.43,18.81C455,825.05,441.13,825.44,428.05,826Z"></path><path fill="#d18165" d="M476.42,754.92c-5.8-11-22.79-28.29-22.56-43.38-4.93,2.28-24.47-7.63-30.94-11h0s-7.18,9.3-10.15,16.82-3.59,9.75-3.59,9.75l12,6.28,1.19-3.25s7.27,3.09,9.78,8.52,11.95,14.86,24.43,18.85S482.23,765.88,476.42,754.92Z"></path><path fill="#abbcca" d="M456.61,757.46c-12.47-4-21.92-13.41-24.43-18.84s-9.77-8.53-9.77-8.53l-1.2,3.25-12-6.28s.62-2.23,3.59-9.75A66.63,66.63,0,0,1,419,706.09c2.17-3.26,4-5.59,4-5.59,6.47,3.41,26,13.31,30.93,11a26.54,26.54,0,0,0,1.56,8.83c.32,1,.69,1.91,1.07,2.85.35.78.7,1.54,1.07,2.31.47,1,1,2,1.51,3,5.43,9.91,13.65,19.47,17.35,26.44C482.22,765.87,469.09,761.45,456.61,757.46Z"></path><path fill="#c82833" d="M374.42,783.89c.78.12,1.57.23,2.36.33h0l3.63.45h.07c1.2.14,2.39.27,3.59.39l1.14.12h0c1.64.16,3.27.29,4.9.42l2.1.13.38,0,2,.1h0l2.16.06h0c.72,0,1.42,0,2.1,0h0a38.65,38.65,0,0,0,7.27-.6h0c-13.93-12.7-20.1-24.91-23.14-33.48-10.12-28.5-4.29-68.53-2.89-78.21,1.53-10.53,3.25-17.37-.34-25.57-4.68-10.71-14-14.45-31.4-22.92-15.85-7.7-30-14.59-40.47-22.78a19.92,19.92,0,0,1-6.16-23.83c2.47-5.38,7.39-9.8,16.72-10.49a96.28,96.28,0,0,0,44.88-15.63H283.8v0l0,0,0,.09,0,.08-.08.18,0,.06-.14.32-.05.11-.13.3-.06.15-.17.39,0,.11q-.12.27-.24.57l-.06.16c-.06.16-.13.32-.19.49l-.09.23-.21.55-.07.19c-.1.26-.19.53-.29.8l-.06.17-.24.69-.09.3c-.08.22-.15.44-.23.67l-.09.28-.3,1a1,1,0,0,0,0,.14l-.27.91-.09.35c-.08.26-.15.52-.22.79l-.09.35c-.1.38-.2.76-.29,1.16h0c-.1.39-.19.79-.28,1.19,0,.13-.05.26-.08.38-.06.3-.13.6-.19.91,0,.13,0,.27-.08.4-.07.37-.14.74-.2,1.11a1.77,1.77,0,0,0,0,.2c-.07.44-.15.88-.21,1.33l-.06.39c-.05.33-.09.67-.14,1,0,.16,0,.31-.05.46q-.08.56-.12,1.11c0,.1,0,.21,0,.31,0,.48-.08,1-.11,1.43l0,.38-.06,1.1c0,.17,0,.33,0,.49,0,.37,0,.74,0,1.12,0,.13,0,.26,0,.4,0,.49,0,1,0,1.5,0,.11,0,.22,0,.33,0,.4,0,.81.05,1.21l0,.5c0,.38.05.76.09,1.13,0,.15,0,.3,0,.45q.07.78.18,1.56l0,.23c.06.44.13.89.21,1.34l.09.5c.07.38.14.76.22,1.14,0,.16.07.32.1.49.12.52.24,1,.38,1.56a39,39,0,0,0,3.38,8.58c.26.49.54,1,.83,1.47.11.17.21.35.31.53.36.57.74,1.13,1.13,1.7l.3.42a40.12,40.12,0,0,0,2.65,3.32c.12.14.25.27.37.4.49.55,1,1.09,1.54,1.62a49.58,49.58,0,0,0,10.41,7.72c.59.34,1.2.67,1.82,1,3.73,2,7.34,3.78,10.8,5.51,2.31,1.15,4.55,2.26,6.74,3.32l3.22,1.56,6.16,2.94,5.76,2.71c11.1,5.21,19.71,9.18,25.37,12.69a36.54,36.54,0,0,1,3.69,2.55,18.8,18.8,0,0,1,1.82,1.64,7.34,7.34,0,0,1,2.24,4,16.11,16.11,0,0,1,.07,3.42c-.2,2.68-.87,5.77-1.59,9.7-.1.52-.19,1-.29,1.59s-.17,1-.25,1.44-.17,1-.25,1.52a129.26,129.26,0,0,0-1.4,25.15c0,.93.07,1.88.13,2.86.14,2.86.37,5.9.7,9.15.13,1.29.26,2.6.39,3.91l0,.36c.27,2.63.56,5.28.85,7.93l0,.33.45,4c.18,1.66.37,3.32.56,5h0c.18,1.6.37,3.2.55,4.78l0,.25q.39,3.21.76,6.35c.13,1,.25,2,.37,3l0,.28c.11.93.23,1.86.34,2.77l0,.36q.36,2.89.71,5.65l0,.34c.24,1.88.48,3.71.7,5.47.94,7.29,1.77,13.5,2.37,17.88,0,.27.07.54.1.8s.07.51.11.76c.33,2.41.56,4.1.67,4.88C374.4,783.72,374.42,783.89,374.42,783.89Z"></path><path fill="#454851" d="M376 786.88a88.2 88.2 0 00-2.79 14.23v.1c0 .46-.07.92-.1 1.38 0 .1 0 .19 0 .29s0 .42 0 .62c-.2 8.08 0 10.39 0 10.39l13.46 1.73v-3.46h0s7.89.39 12.13 4.62c4 4 14.86 9.12 27 9.27.81 0 1.62 0 2.44 0 10.17-.44 20.8-.78 20.69-4.79a56.83 56.83 0 01-22.63-2.35c-8-2.53-19-6-22.32-15.72-2.53-7.41.78-14.72 2.43-17.81a122.83 122.83 0 01-16 .27 121.41 121.41 0 01-13.53-1.4S376.42 785.24 376 786.88zM421.25 702.77c-2.3 3.22-6.41 9.31-8.48 14.55-3 7.51-3.59 9.75-3.59 9.75l12 6.27 1.2-3.25h0s7.27 3.09 9.78 8.52c2.35 5.1 10.8 13.7 22.12 18 .76.28 1.52.55 2.3.8 10.41 3.33 21.27 6.95 21.21 1.7-6.75-7.78-29.24-11.8-35.51-29.45-3.14-8.83.35-13.87-.57-20.45-2.19-.84-4.47-1.81-6.69-2.81-4.95-2.23-9.56-4.6-12.13-6C422.92 700.5 422.26 701.37 421.25 702.77z"></path></g><g data-name="Doctor/Head/Female"><path d="M283.83,451.55s-13.67-12.51,1-26.61,15.5-25.22,14.65-38.21,4.11-34.75,23-41.82,45.23,54.37,45,64.7-5.08,32.8-12.48,35.18S321.26,475.35,283.83,451.55Z"></path><path fill="#ea9d7d" d="M339.27,343.89c-12.4,2.42-20,18.21-18.25,36.54h-.1c-3.39.66-5.39,5-4.46,9.77s4.41,8,7.8,7.37a4.6,4.6,0,0,0,1.3-.47c6.88,13.88,20.25,21.61,31.25,19.46,13.66-2.66,18.49-19.51,14.47-40.14S352.92,341.23,339.27,343.89Z"></path><path fill="#ea9d7d" d="M352.46,427.4c-.63-2.22,2-7.61,3.6-10.72-10.85,1.66-23.77-6-30.5-19.57a4.6,4.6,0,0,1-1.3.47s-1.05,28.21-7.17,28.56c-7.14,6.14-30.5,26.9-25.75,36.53,4,8.08,25.56,3.91,57.72-2.3a16.18,16.18,0,0,0,8.39-4c6.74-6.44,4.9-18,3.95-20.61C360.17,432.35,353.37,430.59,352.46,427.4Z"></path><path fill="#d18165" d="M323.35 408.82c.72-6 .91-11.24.91-11.24a4.6 4.6 0 001.3-.47c6.73 13.57 19.65 21.23 30.5 19.57a47.81 47.81 0 00-3.13 7.05l-.83.2C342.31 425.84 330.65 419.92 323.35 408.82zM320.8 384.64a13.74 13.74 0 00-.07 5 10.54 10.54 0 00.75 2.24c.15.39.39.75.57 1.17s.45.78.64 1.26a6.22 6.22 0 01-1.35-.59 5.82 5.82 0 01-1.15-.95 5.57 5.57 0 01-1.42-2.73A5.43 5.43 0 01319 387 4.8 4.8 0 01320.8 384.64z"></path><path fill="#d18165" d="M317.09,426.14c3.73-.21,5.58-10.77,6.45-19l5.47,2.46,4.69,9.8s-8.95,2-4.69,11.2c3.83,8.29,14,27.11,28.7,25.5-2.13,1.18-5.07,2.7-8.65,4.26-23.55,10.24-55.68,13.48-60.36,4.22S307.4,434.37,317.09,426.14Z"></path><path d="M366.45,362.17s-6.27-9.76-8.1-7.57S353,362.66,341.12,362c0,0-7.95,10.4-9.64,22.6s-10.56-4.19-10.56-4.19-11.39-28.4.92-35.16,24.64-6.91,36.94,0S366.45,362.17,366.45,362.17Z"></path><circle cx="305.42" cy="363.39" r="18.76"></circle><path fill="#be3e5f" d="M354,395.89s1.11,5.68,5.54,6.6c5.6,1.17,7.74-3,7.74-3s-8.38,1-13.28-3.57"></path><path fill="#d18165" d="M362.35,375.06c.45,2,.85,4,1.4,5.92a11.39,11.39,0,0,0,1.05,2.61c.2.33.54.8.82,1.22s.57.9.83,1.38a6.35,6.35,0,0,1,.93,3.44,3,3,0,0,1-.94,1.92,4,4,0,0,1-1.68.88,12.48,12.48,0,0,1-6.34-.45,24.18,24.18,0,0,0,5.84-1,3,3,0,0,0,.94-.64,1.08,1.08,0,0,0,.29-.81,5.45,5.45,0,0,0-.8-2.37c-.22-.42-.47-.83-.73-1.26s-.53-.8-.81-1.38a10.34,10.34,0,0,1-.92-3.18A19.54,19.54,0,0,1,362.35,375.06Z"></path><path d="M356.1 371a45.4 45.4 0 00-5.89 1.37 18.54 18.54 0 00-2.71 1.1c-.9.41-1.71 1-2.66 1.52a6.88 6.88 0 012-2.53 8.81 8.81 0 012.88-1.54 10.3 10.3 0 013.2-.51A8.1 8.1 0 01356.1 371zM366.33 369a9.11 9.11 0 012.76-.65c.18.5.34 1 .51 1.5h0a19.15 19.15 0 00-2.91.3c-1 .14-1.92.45-3 .71A7 7 0 01366.33 369zM368.67 382.62a1.53 1.53 0 01-1.79-1.21L366 377a1.53 1.53 0 013-.59l.86 4.4A1.54 1.54 0 01368.67 382.62zM353.26 383.56a1.54 1.54 0 01-1.8-1.21l-.85-4.4a1.53 1.53 0 113-.59l.86 4.4A1.54 1.54 0 01353.26 383.56z"></path></g><g data-name="Doctor/Torso"><path fill="#ea9d7d" d="M458.55,535.49l10.33.41s2.25-1.78,5.29-4.1c5.75-4.4,14.37-10.72,16.15-10.61,2.71.16,7.42,2.13-4.3,11.15l.09.08c.39.3,2.2,1.49,6.83,1.77,5.33.33,23.28,1.55,26.2,2.64,1.58.6,5.13,5.35-21.49,4.42a1.43,1.43,0,0,0-1.5,1.6c.09.5.45.93,1.41,1,2.41.14,23.22.5,22.86,4.25-.26,2.74-5.71,2.07-23.95,1.27,0,0-2.9.74-.59,2.23.8.52,21.42,2.44,22.43,4.08s3.66,4.3-27.27.92c0,0-.55.31,2.15,1.89,2.86,1.67,11.32,3.91,13.48,7.06s-4.12.66-20-4.68L464.42,558c-14.72,2.08-69.84,6.78-83.53-7.44-12.83-13.32-19.73-61-19.73-61l31.37-1.06,13.14,35.55a6.88,6.88,0,0,0,5.48,4.43l49.32,7.13"></path><line x1="459.1" x2="459.1" y1="535.49" y2="557.67" fill="none" stroke="#2f170b" stroke-linecap="round" stroke-linejoin="round" stroke-width="6"></line><path fill="#ef3e3b" d="M397.9,490.86l-12-37.55a39.07,39.07,0,0,0-13-19,27.78,27.78,0,0,0-5.07-3.22,1,1,0,0,0-1.43.94l1.9,58.8Z"></path><path fill="#25beef" d="M397.9,490.86l-12-37.55a39.07,39.07,0,0,0-13-19,27.78,27.78,0,0,0-5.07-3.22,1,1,0,0,0-1.43.94l1.9,58.8Z"></path><path fill="#1a87c4" d="M366.88,444.52l1.5,46.34h15.77c.37-11.25-.47-23.69-7-37.51-4.49-9.42-7.07-9.9-8.16-9.84A3.29,3.29,0,0,0,366.88,444.52Z"></path><path fill="#ea9d7d" d="M222.42,625.19a24.35,24.35,0,0,0,.73-5.51c.23-15.56,1.71-74.95,10.68-102,2.85-8.63,29.06-52.54,29.06-52.54l37.44,7.92-33,54.79a27.12,27.12,0,0,0-3.19,7.83l-20.11,85.64a8.09,8.09,0,0,0,1.49,6.82c4.23,5.43,12.61,16.46,12.47,18.49-.18,2.71-2.18,7.41-11.13-4.37,0,0-1.53,1.58-1.89,6.91s-1.12,25.84-2.81,26.18-5.49,5.23-4.23-22.65c0,0-2.47-1.38-2.64,1s-1.54,25.29-4.4,22.83-2-5.73-1.11-24c0,0-1.87-1.48-2.23-.6s-2.41,22.52-4.22,22.39-4.33,3.65-.75-27.26c0,0-1-.52-2.13,2.58s-5.51,16.72-6.92,13-.63-4.12,4.81-19.93l4-17.57Z"></path><path fill="#d18165" d="M300.33,473.05l-8.83-1.87c-6.6,8.37-14.8,14.46-25.49,30.1-8.32,12.18-13.71,24.58-16.1,29.83-6.56,14.36-5.23,21.68-9.6,57.12-2.63,21.27-3.94,31.91-5.32,37.48,0,0-9.89,39.85-5.06,49.72a2.79,2.79,0,0,0,1,1.12c2.86,2.46,4.24-20.42,4.4-22.83s2.64-1,2.64-1c-1.26,27.88,2.55,23,4.23,22.65s2.45-20.76,2.81-26.14h0v0c.36-5.33,1.89-6.91,1.89-6.91,9,11.78,10.95,7.08,11.13,4.37.14-2-8.24-13.06-12.47-18.49a8.09,8.09,0,0,1-1.49-6.82l20.11-85.64a27.12,27.12,0,0,1,3.19-7.83Z"></path><polygon fill="#fff" points="395.88 484.52 369.37 484.52 369.37 488.52 397.16 488.52 395.88 484.52"></polygon><path fill="#e3eaf3" d="M384.2,484.52H369.37v4h14.84C384.23,487.2,384.23,485.87,384.2,484.52Z"></path><polygon fill="#fff" points="392.95 475.31 369.85 475.31 369.85 479.31 394.22 479.31 392.95 475.31"></polygon><path fill="#e3eaf3" d="M383.55,475.31h-13.7v4H384C383.85,478,383.72,476.66,383.55,475.31Z"></path><path fill="#25beef" d="M366.75,559H289.24a8.44,8.44,0,0,1-8.33-9.7L299.2,428.61l18.85-4.17c6.73,14.27,27.46,14.92,34.07.6l14.31,5.44a10.88,10.88,0,0,1,8.3,11.15l-.15,4.5q-1.79,54.39-3.56,108.76C371,555.19,370.93,556.65,366.75,559Z"></path><path fill="#25beef" d="M248.61,489.06a4,4,0,0,1-1-5.67l28.2-39.16s10-12.88,23.34-15.62l7.62,39.74-26.95,41a1.36,1.36,0,0,1-1.91.36Z"></path><path fill="#1a87c4" d="M279.87,509.31l26.77-40.68-.06-.39a4.33,4.33,0,0,0-6.9-2.8c-5.11,3.88-11.63,10.58-17.61,16.71-6.25,6.4-12.94,13.27-16.06,19.13L278,509.67A1.36,1.36,0,0,0,279.87,509.31Z"></path><rect width="4" height="41.07" x="263.97" y="472.55" fill="#fff" transform="rotate(-54.78 265.965 493.08)"></rect><path fill="#e3eaf3" d="M271,494.16c-.88,1.07-1.7,2.13-2.45,3.17l13.09,9.24,1.15-1.64,1.1-1.67Z"></path><rect width="4" height="40.65" x="269.73" y="464.38" fill="#fff" transform="rotate(-56.78 271.759 484.72)"></rect><path fill="#e3eaf3" d="M275.17,489.35l12.46,8.16,1.06-1.6,1.14-1.74L278,486.39C277,487.38,276.08,488.36,275.17,489.35Z"></path><path fill="#1a87c4" d="M371,554.89c-5.88-2.08-21.16-2.15-44.31-9.44-21.73-6.85-26.11-12.4-28.08-16.38-4.65-9.36-1.61-21.22-.36-26.1,2.24-8.77,2.88-12.11,7.38-23.22,1.51-3.73,2-12.76,0-13.5-2.33-.86-8.92,9.19-15.66,23.16l-9.08,59.91a8.43,8.43,0,0,0,8.33,9.69h77.51a4.27,4.27,0,0,0,4.27-4.12Z"></path><path fill="none" stroke="#2f170b" stroke-miterlimit="10" stroke-width="2" d="M486.34,532.4s-4.32,16.18-19.09,11.71"></path><path fill="#ea9d7d" d="M458.55,535.52l10.33.41s2.25-1.78,5.29-4.1c5.75-4.4,14.37-10.72,16.15-10.61,2.71.16,7.42,2.13-4.3,11.16l.09.07c.39.3,2.2,1.49,6.83,1.77,5.33.33,23.28,1.55,26.2,2.64,1.58.6,5.13,5.36-21.49,4.42a1.43,1.43,0,0,0-1.5,1.6c.09.5.45.93,1.41,1,2.41.15,23.22.5,22.86,4.26-.26,2.73-5.71,2.06-23.95,1.26,0,0-2.9.74-.59,2.23.8.52,21.42,2.44,22.43,4.08S522,560,491,556.62c0,0-.55.31,2.15,1.89,2.86,1.67,11.32,3.91,13.48,7.06s-4.12.66-20-4.68l-22.29-2.82c-14.72,2.07-69.84,6.77-83.53-7.45-12.83-13.32-19.73-60.95-19.73-60.95l31.37-1.06,13.14,35.55a6.91,6.91,0,0,0,5.48,4.44l49.32,7.12"></path><path fill="none" stroke="#2f170b" stroke-miterlimit="10" stroke-width="2" d="M486.34,532.43s-4.32,16.18-19.09,11.71"></path><path fill="#e3eaf3" d="M226.1,624a9.23,9.23,0,0,1-7-8.8c-.26-18.79-.49-75.4,5.88-93.71,7.68-22.08,42.15-79.7,58-91s36.53-11.27,36.53-11.27l-9.12,276H244.22l4.38-74.4A30.19,30.19,0,0,1,233.66,625,29.38,29.38,0,0,1,226.1,624Z"></path><path fill="#e3eaf3" d="M319.58,419.27l-9.12,276H244.22l3.21-54.54.7-11.93.47-7.93a29.55,29.55,0,0,1-5.49,2.5L223.68,621l-.43,1.72a9.17,9.17,0,0,1-4.1-7.53c-.27-18.79-.5-75.39,5.87-93.71,7.68-22.08,42.15-79.69,58-91S319.58,419.27,319.58,419.27Z"></path><path fill="#abbcca" d="M260.18,695.27c3-3.57,5.52-4.62,6.34-9.6,2.63-15.84-5-38.4-7.95-53.76S265,591.52,265,591.52l-14.17,17.2-2.63,12.16h.39l-4.38,74.4Z"></path><path fill="#abbcca" d="M248.6,620.87s15.22-82.65,16.12-85.68,25.66-41.5,25.66-41.5l17-25.82s3.13,26.14-6.49,41.57-21.66,22.15-28.6,57.19S248.6,620.87,248.6,620.87Z"></path><path fill="#e3eaf3" d="M352.7,419.27v276h42.07l-12-136.73s5,6.32,12,5.64c5.85-.56,47.1-2.4,60.61-3a4.47,4.47,0,0,0,4.27-4.47V533.36a4.47,4.47,0,0,0-4-4.46c-10.95-1.14-40.9-4.46-45.59-7.15C404.3,518.45,405.86,425.87,352.7,419.27Z"></path><path fill="#abbcca" d="M377.45,476.84a42.79,42.79,0,0,0-7.05,23.05c.06,13.22,4.69,58.36,4.89,73.59s3.58,48.8.81,75.94c-1.91,18.73-6.28,35.86-11.41,45.85h30.08l-12-136.73S375.81,496,377.45,476.84Z"></path><line x1="459.65" x2="459.65" y1="535.01" y2="557.2" fill="none" stroke="#2f170b" stroke-linecap="round" stroke-linejoin="round" stroke-width="6"></line><path fill="#7c2f13" d="M293.05,695.27H192.17V648.51a7.33,7.33,0,0,1,7.33-7.33h86.22a7.33,7.33,0,0,1,7.33,7.33Z"></path><polygon fill="#cc7829" points="192.17 695.27 192.17 684.4 203.14 695.27 192.17 695.27"></polygon><polygon fill="#cc7829" points="293.05 695.27 293.05 684.4 282.08 695.27 293.05 695.27"></polygon><path fill="#cc7829" d="M192.17,648.51v2.67H293.05v-2.67a7.33,7.33,0,0,0-7.33-7.33H199.5A7.33,7.33,0,0,0,192.17,648.51Z"></path><path fill="#ea9d7d" d="M258.64,645c-.18,2.71-2.18,7.41-11.13-4.37l-.08.09c-.3.39-1.5,2.19-1.81,6.82-.36,5.33-1.7,23.27-2.81,26.18-.6,1.58-5.39,5.09-4.28-21.51a1.43,1.43,0,0,0-1.59-1.52c-.5.09-.94.44-1,1.41-.16,2.41-.65,23.21-4.4,22.83-2.74-.28-2-5.72-1.11-24,0,0-.73-2.9-2.23-.6-.52.79-2.58,21.4-4.22,22.4s-4.33,3.64-.75-27.27c0,0-.31-.55-1.9,2.13-1.69,2.85-4,11.3-7.15,13.44s-.63-4.12,4.81-19.93l4-17.57.21-.83A9.41,9.41,0,0,0,226.1,624a29.44,29.44,0,0,0,7.56.93,30.07,30.07,0,0,0,9.45-1.58l.95.11s1.77,2.26,4.07,5.32C252.49,634.58,258.76,643.24,258.64,645Z"></path><polygon fill="#cc7829" points="248.05 641.35 257.28 641.35 262.73 647.54 254.41 649.94 248.55 648.08 248.05 641.35"></polygon><path fill="none" stroke="#2f170b" stroke-linecap="round" stroke-linejoin="round" stroke-width="5" d="M356.12,420.81s6,9,5.23,39.31"></path><path fill="#abbcca" d="M351,511.72a4.78,4.78,0,0,1-1-.12,2.5,2.5,0,0,1,1-4.9c1.6-.16,5-3.85,8.55-9.07-7.7-10.23-15.87-25.41-12.91-33.29,1.08-2.86,3.54-4.56,6.93-4.8l14.61-1c4.79-.33,6.91,2.21,7.75,3.75,4.11,7.57-3.33,24.12-10.15,35,3.78,4.61,7.21,7.75,8.71,7.75h0a2.5,2.5,0,0,1,1.66,4.71c-2.71,1-6.19-.66-10.62-5.11-.84-.85-1.75-1.84-2.69-2.94-.32.45-.63.87-.93,1.27C356.15,510.63,352.76,511.72,351,511.72Zm18.07-48.23-.59,0-14.6,1c-1.57.11-3.08.52-2.88,4.16.36,6.78,5.81,16.64,11.45,24.38,5.25-8.65,10.06-19.45,9.59-26.18C371.87,464.17,370.83,463.49,369.09,463.49Z"></path><ellipse cx="376.64" cy="507.42" fill="#2f170b" rx="3.09" ry="3.6" transform="rotate(-3.97 376.721 507.61)"></ellipse><ellipse cx="348.62" cy="509.37" fill="#2f170b" rx="3.09" ry="3.6" transform="rotate(-3.97 348.778 509.53)"></ellipse><path fill="none" stroke="#2f170b" stroke-linecap="round" stroke-linejoin="round" stroke-width="5" d="M315.83,419.43s-12.45,22.72-.51,72.66"></path><circle cx="315.88" cy="492.77" r="8.96" fill="#2f170b"></circle><circle cx="315.88" cy="492.77" r="5.7" fill="#abbcca"></circle><circle cx="315.88" cy="492.77" r="2.64" fill="#2f170b"></circle></g><g><rect width="16" height="293.04" x="718.35" y="532.52" fill="#396e8e"></rect><rect width="525.91" height="236.04" x="318.35" y="524.52" fill="#54a4cc" transform="rotate(-180 581.3 642.535)"></rect><rect width="117.6" height="236.04" x="318.35" y="524.52" fill="#396e8e" transform="rotate(-180 377.15 642.535)"></rect><rect width="236" height="71" x="524.65" y="600.56" fill="#e3eaf3" transform="rotate(-180 642.655 636.055)"></rect><rect width="16" height="293.54" x="836.26" y="532.52" fill="#54a4cc"></rect><rect width="593.01" height="28.17" x="284.8" y="504.35" fill="#895237" transform="rotate(-180 581.3 518.435)"></rect><rect width="16" height="293.04" x="310.35" y="532.52" fill="#396e8e"></rect><rect width="16" height="293.54" x="427.95" y="532.52" fill="#54a4cc"></rect><rect width="593.01" height="28.17" x="284.8" y="504.35" fill="#c9effb" transform="rotate(-180 581.3 518.435)"></rect><rect width="184.15" height="28.17" x="284.8" y="504.35" fill="#87dbf6" transform="rotate(-180 376.875 518.435)"></rect></g></g></svg>